<?xml version="1.0" encoding="UTF-8"?>
<svg version="1.1" xmlns="http://www.w3.org/2000/svg" width="500" height="500">
<path d="M0 0 C0.65709961 0.27505371 1.31419922 0.55010742 1.99121094 0.83349609 C18.97760548 8.06965119 35.17066888 17.74171397 49 30 C50.17087581 30.99360365 51.34422614 31.98429585 52.51953125 32.97265625 C62.3994948 41.29972078 71.00758952 49.79529029 79 60 C79.42297363 60.53592773 79.84594727 61.07185547 80.28173828 61.62402344 C107.81015982 96.78277184 122.54342202 140.11069298 122.3125 184.6875 C122.30976578 185.79476944 122.30976578 185.79476944 122.30697632 186.92440796 C122.2563977 199.15636163 121.47693387 211.00197398 119 223 C118.82839355 223.85803223 118.65678711 224.71606445 118.47998047 225.60009766 C111.1531854 261.3959767 94.53101664 293.65968421 69.53125 320.28125 C67.39184482 322.57912963 65.3398101 324.91658807 63.3125 327.3125 C35.06587966 359.80331457 -14.86837274 381.27372442 -57 385 C-60.13322861 385.14769596 -63.26201443 385.18672246 -66.3984375 385.203125 C-67.27287506 385.20882507 -68.14731262 385.21452515 -69.04824829 385.22039795 C-70.89201676 385.22978705 -72.73580155 385.23635748 -74.57958984 385.24023438 C-77.33332539 385.24985441 -80.08628535 385.28090098 -82.83984375 385.3125 C-98.41580698 385.40650584 -113.54895556 383.80474737 -128.5 379.25 C-129.36326904 378.99395996 -130.22653809 378.73791992 -131.1159668 378.47412109 C-146.07278602 373.94819987 -160.23553894 368.40161001 -174 361 C-174.59087402 360.68981934 -175.18174805 360.37963867 -175.79052734 360.06005859 C-189.00493837 353.09754779 -200.92086056 344.17941954 -211.83984375 334.0078125 C-213.86538639 332.12512006 -215.94704391 330.34262939 -218.0625 328.5625 C-248.06046931 302.29173329 -266.77207218 262.30100398 -275 224 C-275.26683594 222.76975098 -275.26683594 222.76975098 -275.5390625 221.51464844 C-284.74565513 176.66904346 -275.39385902 128.89887883 -254 89 C-253.6685498 88.38108887 -253.33709961 87.76217773 -252.99560547 87.12451172 C-248.58152086 78.96697285 -243.67189199 71.34337293 -238 64 C-237.37480469 63.18144531 -236.74960938 62.36289063 -236.10546875 61.51953125 C-203.82831804 20.1705948 -156.75799634 -6.34100124 -105 -14 C-103.98860962 -14.15686279 -103.98860962 -14.15686279 -102.95678711 -14.31689453 C-68.3021962 -18.97416495 -32.06426518 -13.53193166 0 0 Z " fill="#02BE62" transform="translate(328,65)"/>
<path d="M0 0 C20.79 0 41.58 0 63 0 C63 5.28 63 10.56 63 16 C48.48 16 33.96 16 19 16 C19 21.94 19 27.88 19 34 C31.54 34 44.08 34 57 34 C57 38.62 57 43.24 57 48 C44.46 48 31.92 48 19 48 C19 54.6 19 61.2 19 68 C33.85 68 48.7 68 64 68 C64 72.95 64 77.9 64 83 C58.06 83.33 52.12 83.66 46 84 C45.34 85.98 44.68 87.96 44 90 C38 88 38 88 36.23046875 87.19921875 C30.79851234 84.93858206 25.56118634 84.64751335 19.75 84.5625 C18.96915039 84.5404248 18.18830078 84.51834961 17.38378906 84.49560547 C13.46353816 84.50991295 11.42797116 84.74232686 7.99609375 86.80859375 C5.6949039 88.95471552 5.6949039 88.95471552 5.3125 92.5 C5.65359917 96.09478803 5.65359917 96.09478803 8.23828125 98.00390625 C14.19615206 101.67423034 21.62939871 102.66169542 28.34765625 104.26757812 C37.02882757 106.45035826 43.94981221 109.19353874 50 116 C50.226875 114.865625 50.45375 113.73125 50.6875 112.5625 C53.08631159 103.26299753 57.74592815 96.95968352 66 92 C72.36395597 88.5145788 77.70927358 87.33895625 84.9375 87.5 C85.81704346 87.51353516 86.69658691 87.52707031 87.6027832 87.54101562 C97.78715819 87.86603882 104.56764553 90.6679163 112.01953125 97.7109375 C118.95636334 105.72865664 120.36649902 114.18061788 120.28125 124.453125 C119.89378449 129.33949555 118.53329046 132.85235778 116 137 C115.62617188 137.63550781 115.25234375 138.27101563 114.8671875 138.92578125 C109.86925826 146.6543672 103.26682153 149.81171405 94.5390625 152.26953125 C82.88816983 154.67429607 74.03589511 152.86284437 63.8125 147.25 C60.63628721 144.70902977 58.12175969 141.91561405 55.515625 138.8046875 C53.97457228 136.91675177 53.97457228 136.91675177 52 135 C51.5875 135.886875 51.175 136.77375 50.75 137.6875 C46.57753298 145.58538401 41.19036219 149.10237714 32.93359375 152.12109375 C19.32077964 155.78277422 1.81365769 154.30508601 -10.55078125 147.62109375 C-12.41573893 146.49052355 -14.21828766 145.2576793 -16 144 C-14.50829734 139.0276578 -12.39542583 134.58154261 -10 130 C-5.35122273 131.46803493 -0.86973062 133.23912989 3.6328125 135.09765625 C11.06830305 137.9319769 20.88546665 138.73446216 28.3125 135.5625 C30.8374016 134.24789592 30.8374016 134.24789592 32 133 C32.75182653 129.6709041 32.75182653 129.6709041 32 126 C27.23723112 120.41553936 18.7826594 119.53539954 11.98828125 117.96484375 C3.22306836 115.91065991 -5.70292018 113.366403 -11.3125 105.9375 C-14.98622306 99.5425006 -15.25334071 91.68115204 -13.3515625 84.578125 C-10.83931144 79.03828934 -6.43864669 74.71932335 -1 72 C-0.67 48.24 -0.34 24.48 0 0 Z " fill="#F5FDFA" transform="translate(144,200)"/>
<path d="M0 0 C5.3736184 3.84811548 9.09557265 10.73593669 11.15234375 16.90625 C11.77187359 26.42263461 12.15373717 35.42562637 7.15234375 43.90625 C6.62640625 44.47214844 6.10046875 45.03804688 5.55859375 45.62109375 C3.40377221 49.12267875 3.58204759 52.61774053 3.46484375 56.65625 C3.43068359 57.44902344 3.39652344 58.24179687 3.36132812 59.05859375 C3.27915271 61.00732504 3.2140633 62.95676362 3.15234375 64.90625 C8.10234375 64.90625 13.05234375 64.90625 18.15234375 64.90625 C18.15234375 69.52625 18.15234375 74.14625 18.15234375 78.90625 C13.20234375 78.90625 8.25234375 78.90625 3.15234375 78.90625 C3.22635342 83.12480131 3.30917395 87.34123328 3.41479492 91.55883789 C3.44803376 92.99329628 3.4760691 94.42788513 3.4987793 95.86254883 C3.53234646 97.92585807 3.58465788 99.98797303 3.640625 102.05078125 C3.66680908 103.29190674 3.69299316 104.53303223 3.7199707 105.81176758 C3.89744506 108.87922611 3.89744506 108.87922611 5.56323242 110.81420898 C7.56680388 112.19106797 8.73973317 112.24763676 11.15234375 112.15625 C11.83296875 112.14078125 12.51359375 112.1253125 13.21484375 112.109375 C15.36849267 111.95397119 15.36849267 111.95397119 18.15234375 110.90625 C18.80229672 112.32103135 19.44713097 113.73816487 20.08984375 115.15625 C20.44949219 115.94515625 20.80914062 116.7340625 21.1796875 117.546875 C22.05267654 119.66448698 22.66572883 121.67294362 23.15234375 123.90625 C15.80022 128.70763694 8.77379943 128.82222065 0.15234375 127.90625 C-5.99363134 126.3058343 -10.52396583 122.26226068 -13.84765625 116.90625 C-15.72269872 112.2392865 -16.08306909 108.33285517 -16.04296875 103.3203125 C-16.04013885 102.61852875 -16.03730896 101.916745 -16.03439331 101.19369507 C-16.02328137 98.97269972 -15.99819459 96.75212155 -15.97265625 94.53125 C-15.96261479 93.01693295 -15.95349098 91.50260951 -15.9453125 89.98828125 C-15.92337179 86.29413742 -15.888905 82.60023449 -15.84765625 78.90625 C-18.22612058 79.13622874 -20.59826891 79.38946491 -22.97265625 79.65625 C-23.97039062 79.7490625 -23.97039062 79.7490625 -24.98828125 79.84375 C-29.91369444 80.42321038 -33.11388749 81.63784952 -36.84765625 84.90625 C-39.78024593 90.0438177 -40.30895916 94.49078146 -40.359375 100.24609375 C-40.3773262 101.01305069 -40.3952774 101.78000763 -40.41377258 102.57020569 C-40.46750105 104.99466626 -40.501649 107.41893432 -40.53515625 109.84375 C-40.56836259 111.49807346 -40.60285527 113.15237162 -40.63867188 114.80664062 C-40.72560354 118.83986566 -40.78598722 122.87224504 -40.84765625 126.90625 C-46.78765625 126.90625 -52.72765625 126.90625 -58.84765625 126.90625 C-58.84765625 106.11625 -58.84765625 85.32625 -58.84765625 63.90625 C-53.23765625 63.90625 -47.62765625 63.90625 -41.84765625 63.90625 C-41.84765625 66.21625 -41.84765625 68.52625 -41.84765625 70.90625 C-41.18765625 70.90625 -40.52765625 70.90625 -39.84765625 70.90625 C-39.35265625 69.42125 -39.35265625 69.42125 -38.84765625 67.90625 C-32.48586846 62.99032307 -27.56974913 62.77536707 -19.84765625 62.90625 C-19.84765625 63.56625 -19.84765625 64.22625 -19.84765625 64.90625 C-18.52765625 64.90625 -17.20765625 64.90625 -15.84765625 64.90625 C-15.84765625 62.92625 -15.84765625 60.94625 -15.84765625 58.90625 C-16.8634375 58.96425781 -17.87921875 59.02226562 -18.92578125 59.08203125 C-29.9043196 59.51844187 -38.84565357 58.09572099 -47.78515625 51.09375 C-55.10295933 44.13291293 -58.08951627 35.75394175 -58.34765625 25.71875 C-58.20640647 16.19851459 -54.90448864 8.88515779 -48.47265625 1.90625 C-35.18005538 -10.17793261 -14.55855125 -8.61816987 0 0 Z " fill="#F5FDFA" transform="translate(325.84765625,225.09375)"/>
<path d="M0 0 C4.50473138 2.85474256 8.05144382 5.83107199 11.015625 10.27734375 C10.97265625 12.25390625 10.97265625 12.25390625 10.015625 14.27734375 C7.65234375 16.05078125 7.65234375 16.05078125 4.703125 17.65234375 C3.73761719 18.19632813 2.77210938 18.7403125 1.77734375 19.30078125 C-0.984375 20.27734375 -0.984375 20.27734375 -3.17578125 19.5703125 C-5.52008457 17.89436348 -7.75175453 16.09869203 -9.984375 14.27734375 C-14.61629183 11.96138534 -20.61284842 12.82016822 -25.359375 14.40234375 C-28.79930692 16.85943798 -30.23303993 18.37051937 -31.984375 22.27734375 C-32.73788871 28.93197049 -33.13782281 35.69167255 -28.984375 41.27734375 C-24.71374059 45.1313309 -22.04631275 46.63676841 -16.2109375 46.5625 C-10.11962099 45.78238403 -6.22158685 42.5145556 -1.984375 38.27734375 C2.305625 40.58734375 6.595625 42.89734375 11.015625 45.27734375 C9.79968545 51.35704149 7.78695379 53.55057303 3.015625 57.27734375 C-6.94658666 62.85283364 -18.19045855 64.11637954 -29.296875 61.15234375 C-39.58970947 57.51858445 -45.79120186 51.23793361 -50.859375 41.77734375 C-53.35357745 34.23499502 -53.39607766 23.64875119 -50.421875 16.27734375 C-45.80213266 7.78350169 -39.20239068 1.86287296 -30.31640625 -1.83203125 C-21.01919147 -4.31710155 -8.70547191 -4.27663917 0 0 Z " fill="#F3FDF9" transform="translate(259.984375,221.72265625)"/>
<path d="M0 0 C0.98484375 0.00902344 1.9696875 0.01804688 2.984375 0.02734375 C4.10585937 0.04474609 4.10585937 0.04474609 5.25 0.0625 C8.98361521 7.52973042 5.71960042 19.59055183 3.25 27.10546875 C-1.44902619 39.3012966 -8.51319885 47.40039216 -20.2265625 53.3125 C-27.94114839 56.64324184 -36.32178448 58.51807922 -44.75 58.0625 C-48.56217602 46.62597194 -44.86166476 34.28977753 -40 23.8125 C-33.26389064 11.03370429 -21.28390011 4.65808829 -7.8203125 0.4609375 C-5.18197409 -0.04681819 -2.68463405 -0.03195993 0 0 Z " fill="#F7FDFA" transform="translate(224.75,132.9375)"/>
<path d="M0 0 C16.94994591 -0.6848463 31.2937142 1.37526472 44.625 12.875 C52.79690243 21.57099118 57.91719842 34.68990018 58.1875 46.5 C58 50 58 50 57 51 C40.85774107 52.25830526 27.48200236 49.89346232 14.52734375 39.390625 C6.64348611 31.93325115 0.29654718 19.84861546 -0.1171875 8.8984375 C-0.12414135 5.92914308 -0.08772044 2.96787492 0 0 Z " fill="#F7FDFB" transform="translate(108,142)"/>
<path d="M0 0 C9.17881963 4.10812339 14.93105098 14.99506414 18.8984375 23.74609375 C23.0354725 34.85076663 22.34265641 47.14309659 17.65234375 57.88671875 C14.35584308 64.29886469 10.45138387 70.20559897 6.0859375 75.93359375 C-3.88019247 71.49192607 -10.45474932 60.66946211 -14.7890625 51.05859375 C-18.84750651 39.78513818 -18.27580865 26.77137632 -13.48046875 15.8828125 C-11.02409201 11.25796353 -8.22152251 6.99346173 -4.9140625 2.93359375 C-4.43195313 2.32773438 -3.94984375 1.721875 -3.453125 1.09765625 C-1.9140625 -0.06640625 -1.9140625 -0.06640625 0 0 Z " fill="#F8FEFB" transform="translate(164.9140625,86.06640625)"/>
<path d="M0 0 C4.12593192 2.87855716 7.06537651 6.00862953 8.6875 10.875 C9.4162752 17.60123671 8.97234656 23.43143437 4.6875 28.875 C0.92228392 32.36823659 -2.78686241 34.16824239 -7.9375 34.4375 C-12.32569484 34.16559808 -14.94958361 32.76867224 -18.3125 29.875 C-23.52310869 23.960255 -23.66156553 20.09845455 -23.58984375 12.3046875 C-23.12429961 6.54767688 -20.80714055 4.22729383 -16.6875 0.5 C-11.07455999 -2.20252667 -5.84833338 -1.98622643 0 0 Z " fill="#09BD66" transform="translate(310.3125,235.125)"/>
<path d="M0 0 C3.9089259 2.6521554 5.86509504 5.99284 7.125 10.5 C7.90873632 16.77879662 7.78936983 22.1343156 4.125 27.5 C1.20724541 31.12204018 -1.31339365 32.57078389 -5.875 33.5 C-10.77903487 33.64376649 -15.29459654 33.41097194 -19.3125 30.375 C-24.13473029 24.96469285 -25.40703966 19.94385552 -25.16015625 12.859375 C-24.44657717 6.95524125 -21.22761418 3.3085374 -16.875 -0.5 C-11.42384723 -2.31705092 -5.25500989 -2.58200702 0 0 Z " fill="#08BC65" transform="translate(237.875,304.5)"/>
<path d="M0 0 C5 1 5 1 6.58203125 3.06640625 C6.98808594 3.89011719 7.39414062 4.71382813 7.8125 5.5625 C8.23144531 6.38878906 8.65039062 7.21507812 9.08203125 8.06640625 C9.38496094 8.70449219 9.68789063 9.34257812 10 10 C12.10186897 7.46326158 13.94588108 5.10147297 15.5 2.1875 C15.995 1.465625 16.49 0.74375 17 0 C18.32 0 19.64 0 21 0 C21 6.27 21 12.54 21 19 C19.68 19 18.36 19 17 19 C16.67 16.03 16.34 13.06 16 10 C14.68 12.31 13.36 14.62 12 17 C10.1875 16.875 10.1875 16.875 8 16 C6.25 12.9375 6.25 12.9375 5 10 C4.67 12.97 4.34 15.94 4 19 C2.68 19 1.36 19 0 19 C0 12.73 0 6.46 0 0 Z " fill="#E1FDF2" transform="translate(383,322)"/>
<path d="M0 0 C12.87 0 25.74 0 39 0 C39 5.28 39 10.56 39 16 C36.96876925 18.03123075 32.82231134 17.25669618 30.02734375 17.31640625 C28.83087975 17.3475779 28.83087975 17.3475779 27.61024475 17.37937927 C25.05275389 17.44496158 22.4951572 17.50379967 19.9375 17.5625 C18.20767118 17.60567699 16.47785321 17.64929101 14.74804688 17.69335938 C10.49880496 17.80147739 6.24948711 17.90048535 2 18 C1.67 23.28 1.34 28.56 1 34 C15.52 34 30.04 34 45 34 C45 34.33 45 34.66 45 35 C30.15 35 15.3 35 0 35 C0 28.4 0 21.8 0 15 C12.54 15 25.08 15 38 15 C38 10.38 38 5.76 38 1 C25.46 1 12.92 1 0 1 C0 0.67 0 0.34 0 0 Z " fill="#5CCF99" transform="translate(163,233)"/>
<path d="M0 0 C5.61 0 11.22 0 17 0 C17 1.32 17 2.64 17 4 C15.02 4 13.04 4 11 4 C11 8.95 11 13.9 11 19 C9.35 19 7.7 19 6 19 C6 14.05 6 9.1 6 4 C4.02 4 2.04 4 0 4 C0 2.68 0 1.36 0 0 Z " fill="#D3F9E9" transform="translate(364,322)"/>
</svg>
